HIERARCHY
ROOT Hips
{
	OFFSET 0.000000 0.000000 0.000000
	CHANNELS 6 Xposition Yposition Zposition Zrotation Yrotation Xrotation 
	JOINT LowerBack
	{
		OFFSET 0.000000 0.000000 0.000000
		CHANNELS 3 Zrotation Yrotation Xrotation
		JOINT Spine
		{
			OFFSET 0.028270 2.035590 -0.193380
			CHANNELS 3 Zrotation Yrotation Xrotation
			JOINT Spine1
			{
				OFFSET 0.056720 2.048850 -0.042750
				CHANNELS 3 Zrotation Yrotation Xrotation
				JOINT Neck
				{
					OFFSET 0.000000 0.000000 0.000000
					CHANNELS 3 Zrotation Yrotation Xrotation
					JOINT Neck1
					{
						OFFSET -0.054170 1.746240 0.172020
						CHANNELS 3 Zrotation Yrotation Xrotation
						JOINT Head
						{
							OFFSET 0.104070 1.761360 -0.123970
							CHANNELS 3 Zrotation Yrotation Xrotation
							End Site
							{
								OFFSET 0.000000 0.000000 0.000000
							}
						}
					}
				}
				JOINT LeftShoulder
				{
					OFFSET 0.000000 0.000000 0.000000
					CHANNELS 3 Zrotation Yrotation Xrotation
					JOINT LeftArm
					{
						OFFSET 3.362410 1.200890 -0.311210
						CHANNELS 3 Zrotation Yrotation Xrotation
						JOINT LeftForeArm
						{
							OFFSET 4.983000 -0.000000 -0.000000
							CHANNELS 3 Zrotation Yrotation Xrotation
							JOINT LeftHand
							{
								OFFSET 3.483560 -0.000000 -0.000000
								CHANNELS 3 Zrotation Yrotation Xrotation
								JOINT LeftFingerBase
								{
									OFFSET 0.000000 0.000000 0.000000
									CHANNELS 3 Zrotation Yrotation Xrotation
									JOINT LeftHandIndex1
									{
										OFFSET 0.715260 -0.000000 -0.000000
										CHANNELS 3 Zrotation Yrotation Xrotation
										End Site
										{
											OFFSET 0.000000 0.000000 0.000000
										}
									}
								}
								JOINT LThumb
								{
									OFFSET 0.000000 0.000000 0.000000
									CHANNELS 3 Zrotation Yrotation Xrotation
									End Site
									{
										OFFSET 0.000000 0.000000 0.000000
									}
								}
							}
						}
					}
				}
				JOINT RightShoulder
				{
					OFFSET 0.000000 0.000000 0.000000
					CHANNELS 3 Zrotation Yrotation Xrotation
					JOINT RightArm
					{
						OFFSET -3.136600 1.374050 -0.404650
						CHANNELS 3 Zrotation Yrotation Xrotation
						JOINT RightForeArm
						{
							OFFSET -5.241900 -0.000000 -0.000000
							CHANNELS 3 Zrotation Yrotation Xrotation
							JOINT RightHand
							{
								OFFSET -3.444170 -0.000000 -0.000000
								CHANNELS 3 Zrotation Yrotation Xrotation
								JOINT RightFingerBase
								{
									OFFSET 0.000000 0.000000 0.000000
									CHANNELS 3 Zrotation Yrotation Xrotation
									JOINT RightHandIndex1
									{
										OFFSET -0.622530 -0.000000 -0.000000
										CHANNELS 3 Zrotation Yrotation Xrotation
										End Site
										{
											OFFSET 0.000000 0.000000 0.000000
										}
									}
								}
								JOINT RThumb
								{
									OFFSET 0.000000 0.000000 0.000000
									CHANNELS 3 Zrotation Yrotation Xrotation
									End Site
									{
										OFFSET 0.000000 0.000000 0.000000
									}
								}
							}
						}
					}
				}
			}
		}
	}
}
}
MOTION
Frames: 7
Frame Time: 0.008333
4.545333 15.615291 -5.986610 -178.807723 22.374559 -155.965223 9.368937 -2.800735 9.421296 1.366720 -2.985758 -1.312124 -5.235729 -2.907992 -1.224713 5.948277 -10.686990 -6.226522 -3.657658 -0.265376 0.046858 0.000000 0.000000 0.000000 7.715504 4.251468 -0.258511 -75.581689 -10.582182 17.786716 -178.696721 -73.590582 -179.982391 -1.644102 2.246602 -0.024390 0.028283 0.491191 0.000000 0.000000 0.000000 0.000000 0.000000 0.000000 0.000000 8.597454 -7.716431 1.569470 71.528146 -15.312238 -5.272571 0.228062 80.450569 -0.050663 -12.640680 1.104738 -0.151344 0.156717 -0.253080 0.000000 0.000000 0.000000 0.000000 0.000000 0.000000 0.000000 
4.639813 15.591142 -6.131975 -179.027105 21.696078 -156.271221 9.736597 -2.901076 9.520936 1.432794 -3.079977 -1.314690 -5.273343 -3.008252 -1.310451 6.100365 -10.460824 -6.250359 -3.696135 -0.267441 0.037745 0.000000 0.000000 0.000000 7.451655 4.083745 -0.116355 -75.635272 -9.044142 17.390659 -178.835899 -74.742468 -179.984617 -1.444879 2.640867 -0.026748 0.027529 0.468855 0.000000 0.000000 0.000000 0.000000 0.000000 0.000000 0.000000 8.986607 -7.510578 1.533932 71.299349 -14.389918 -5.753329 0.236836 80.097306 -0.052217 -12.888823 0.953731 -0.137261 0.160922 -0.253558 0.000000 0.000000 0.000000 0.000000 0.000000 0.000000 0.000000 
4.730313 15.571223 -6.275440 -179.196771 21.057267 -156.520660 10.113069 -2.982723 9.614992 1.497529 -3.155320 -1.314707 -5.317126 -3.089781 -1.385873 6.278095 -10.223201 -6.264120 -3.729838 -0.269231 0.031227 0.000000 0.000000 0.000000 7.166570 3.939000 0.022353 -75.732653 -7.553509 16.977326 -178.980755 -76.068385 -179.987036 -1.210448 3.074388 -0.027308 0.025868 0.445177 0.000000 0.000000 0.000000 0.000000 0.000000 0.000000 0.000000 9.398207 -7.296042 1.492534 71.032412 -13.382779 -6.188007 0.246954 79.679930 -0.053840 -13.147311 0.778535 -0.119579 0.165200 -0.253714 0.000000 0.000000 0.000000 0.000000 0.000000 0.000000 0.000000 
4.817555 15.555296 -6.416662 -179.330162 20.461447 -156.717803 10.483039 -3.042365 9.699396 1.558252 -3.208645 -1.312117 -5.365598 -3.149334 -1.447552 6.479485 -9.986924 -6.269426 -3.756951 -0.270633 0.027104 0.000000 0.000000 0.000000 6.874341 3.813767 0.154454 -75.869267 -6.119752 16.548463 -179.129291 -77.566720 -179.989670 -0.933603 3.540884 -0.025069 0.023199 0.420475 0.000000 0.000000 0.000000 0.000000 0.000000 0.000000 0.000000 9.822379 -7.084022 1.445040 70.744388 -12.300562 -6.578335 0.257955 79.214780 -0.055533 -13.414180 0.586913 -0.099300 0.169509 -0.253684 0.000000 0.000000 0.000000 0.000000 0.000000 0.000000 0.000000 
4.902128 15.543045 -6.555412 -179.440077 19.910297 -156.868871 10.831249 -3.077904 9.772290 1.612211 -3.238010 -1.306280 -5.418162 -3.184789 -1.491275 6.703135 -9.755047 -6.268964 -3.776732 -0.271584 0.024756 0.000000 0.000000 0.000000 6.587631 3.722604 0.279453 -76.036345 -4.769809 16.124399 -179.278387 -79.241248 -179.992550 -0.605432 4.038127 -0.018929 0.019127 0.395022 0.000000 0.000000 0.000000 0.000000 0.000000 0.000000 0.000000 10.253806 -6.874841 1.389495 70.451371 -11.164329 -6.934370 0.268997 78.730242 -0.057281 -13.683844 0.386530 -0.077019 0.173733 -0.253606 0.000000 0.000000 0.000000 0.000000 0.000000 0.000000 0.000000 
4.984604 15.534082 -6.691443 -179.540764 19.403849 -156.982847 11.144224 -3.088455 9.834649 1.657237 -3.242606 -1.296876 -5.473048 -3.195314 -1.515910 6.944297 -9.530794 -6.263882 -3.788450 -0.272041 0.023943 0.000000 0.000000 0.000000 6.318125 3.667642 0.397406 -76.223201 -3.516208 15.717564 -179.424967 -81.082834 -179.995673 -0.221242 4.560371 -0.007683 0.013537 0.369170 0.000000 0.000000 0.000000 0.000000 0.000000 0.000000 0.000000 10.681825 -6.668989 1.325640 70.170045 -9.994042 -7.262438 0.279248 78.252447 -0.059070 -13.950410 0.186819 -0.053839 0.177760 -0.253651 0.000000 0.000000 0.000000 0.000000 0.000000 0.000000 0.000000 
5.065400 15.528075 -6.824621 -179.644694 18.941045 -157.068595 11.413077 -3.074218 9.889153 1.692234 -3.222658 -1.283951 -5.527693 -3.181241 -1.522843 7.195341 -9.318020 -6.254261 -3.791347 -0.271964 0.024663 0.000000 0.000000 0.000000 6.072418 3.641109 0.509106 -76.417654 -2.357726 15.332814 -179.566088 -83.071295 -179.998990 0.218491 5.098606 0.009669 0.006554 0.343309 0.000000 0.000000 0.000000 0.000000 0.000000 0.000000 0.000000 11.091460 -6.467974 1.254556 69.915404 -8.806247 -7.563778 0.288009 77.802876 -0.060886 -14.208162 -0.001700 -0.031058 0.181503 -0.254000 0.000000 0.000000 0.000000 0.000000 0.000000 0.000000 0.000000 
